<svg width="32" height="32" viewBox="0 0 32 32" fill="none" xmlns="http://www.w3.org/2000/svg">
<path d="M15 25H9C8.73478 25 8.48043 24.8946 8.29289 24.7071C8.10536 24.5195 8 24.2652 8 24C8 23.7347 8.10536 23.4804 8.29289 23.2928C8.48043 23.1053 8.73478 23 9 23H15C15.2652 23 15.5196 23.1053 15.7071 23.2928C15.8946 23.4804 16 23.7347 16 24C16 24.2652 15.8946 24.5195 15.7071 24.7071C15.5196 24.8946 15.2652 25 15 25ZM23 23H20C19.7348 23 19.4804 23.1053 19.2929 23.2928C19.1054 23.4804 19 23.7347 19 24C19 24.2652 19.1054 24.5195 19.2929 24.7071C19.4804 24.8946 19.7348 25 20 25H23C23.2652 25 23.5196 24.8946 23.7071 24.7071C23.8946 24.5195 24 24.2652 24 24C24 23.7347 23.8946 23.4804 23.7071 23.2928C23.5196 23.1053 23.2652 23 23 23ZM20 27H13C12.7348 27 12.4804 27.1053 12.2929 27.2928C12.1054 27.4804 12 27.7347 12 28C12 28.2652 12.1054 28.5195 12.2929 28.7071C12.4804 28.8946 12.7348 29 13 29H20C20.2652 29 20.5196 28.8946 20.7071 28.7071C20.8946 28.5195 21 28.2652 21 28C21 27.7347 20.8946 27.4804 20.7071 27.2928C20.5196 27.1053 20.2652 27 20 27ZM29 11.5C28.9974 14.0187 27.9956 16.4335 26.2146 18.2145C24.4336 19.9956 22.0187 20.9973 19.5 21H9.5C7.77609 21 6.12279 20.3151 4.90381 19.0961C3.68482 17.8772 3 16.2239 3 14.5C3 12.776 3.68482 11.1227 4.90381 9.90376C6.12279 8.68477 7.77609 7.99995 9.5 7.99995C9.87367 8.00027 10.2467 8.03205 10.615 8.09495C11.4125 6.02341 12.9096 4.29611 14.8467 3.21231C16.7839 2.12852 19.0392 1.75651 21.2219 2.16075C23.4045 2.56498 25.377 3.71999 26.7975 5.42566C28.2181 7.13133 28.9973 9.2802 29 11.5ZM27 11.5C26.992 9.55252 26.2276 7.68441 24.8681 6.28999C23.5087 4.89557 21.6605 4.08398 19.7139 4.02656C17.7673 3.96913 15.8746 4.67037 14.4353 5.98222C12.996 7.29408 12.1228 9.11388 12 11.0575C11.9924 11.1888 11.9591 11.3173 11.9019 11.4358C11.8446 11.5542 11.7646 11.6602 11.6664 11.7477C11.4681 11.9245 11.2077 12.0152 10.9425 12C10.6773 11.9847 10.429 11.8647 10.2522 11.6664C10.0755 11.4681 9.98475 11.2077 10 10.9425C10.0175 10.6375 10.0496 10.3362 10.0962 10.0387C9.89851 10.0133 9.69937 10.0004 9.5 9.99995C8.30653 9.99995 7.16193 10.4741 6.31802 11.318C5.47411 12.1619 5 13.3065 5 14.5C5 15.6934 5.47411 16.838 6.31802 17.6819C7.16193 18.5258 8.30653 19 9.5 19H19.5C21.4884 18.9976 23.3947 18.2067 24.8007 16.8007C26.2068 15.3947 26.9977 13.4884 27 11.5Z" fill="#3B3B55"/>
</svg>
